<?xml version="1.0" encoding="utf-8" ?>
<svg xmlns="http://www.w3.org/2000/svg" xmlns:xlink="http://www.w3.org/1999/xlink" width="512" height="512">
	<path fill="#23233B" transform="scale(0.5 0.5)" d="M-0 -0L1024 0L1024 1024L-0 1024L0 -0Z"/>
	<path fill="#00A9E2" transform="scale(0.5 0.5)" d="M741.411 210.918L742.041 210.306L741.052 250.587C739.105 246.688 739.438 241.529 739.44 237.279L740.139 216C740.278 214.044 740.619 212.73 741.411 210.918Z"/>
	<defs>
		<linearGradient id="gradient_0" gradientUnits="userSpaceOnUse" x1="690.70618" y1="508.85611" x2="837.77368" y2="272.19922">
			<stop offset="0" stop-color="#D7D6D6"/>
			<stop offset="1" stop-color="white"/>
		</linearGradient>
	</defs>
	<path fill="url(#gradient_0)" transform="scale(0.5 0.5)" d="M754.554 223.883C761.66 226.865 768.844 230.869 776.303 232.791L776.983 232.961L776.855 552.25L775.25 552.488C770.214 551.151 764.569 550.911 759.396 550.218C757.533 549.969 755.29 549.907 753.562 549.147L754.554 223.883Z"/>
	<defs>
		<linearGradient id="gradient_1" gradientUnits="userSpaceOnUse" x1="291.16483" y1="542.9989" x2="219.76807" y2="235.86331">
			<stop offset="0" stop-color="#B1B0AF"/>
			<stop offset="1" stop-color="white"/>
		</linearGradient>
	</defs>
	<path fill="url(#gradient_1)" transform="scale(0.5 0.5)" d="M243.591 324.685L243.845 233.443L244.483 233.268L268.099 224.849L268.325 328.143L268.215 548.804L243.133 552.529L243.591 324.685Z"/>
	<defs>
		<linearGradient id="gradient_2" gradientUnits="userSpaceOnUse" x1="290.73605" y1="556.30554" x2="133.11673" y2="331.05316">
			<stop offset="0" stop-color="#A29A98"/>
			<stop offset="1" stop-color="#F1FAFA"/>
		</linearGradient>
	</defs>
	<path fill="url(#gradient_2)" transform="scale(0.5 0.5)" d="M192.749 289.76C205.11 282.627 217.707 278.804 231.488 275.506L231.355 333.647L230.943 414.241L230.875 512.5C230.722 530.182 231.751 548.398 230.112 566.003C229.94 567.848 229.481 569.292 228.75 570.981L228.367 571.878L228.665 572.296C226.995 573.612 225.787 574.754 224.806 576.665C220.602 584.862 218.723 594.766 216.239 603.623C215.718 605.48 214.117 609.12 214.286 610.964L214.521 611.762L209.577 613.847L204.563 615.722C204.824 617.015 204.737 617.412 203.958 618.5L202.418 620.296C201.937 620.395 201.021 620.657 200.5 620.59C198.804 620.373 198.688 619.762 197.819 618.429L197.418 618.308C196.578 612.599 195.22 606.844 194.651 601.12C194.13 595.881 194.564 590.532 194.313 585.269L192.711 527.382C192.53 520.143 194.159 512.842 193.311 505.607C192.589 499.452 193.021 493.377 192.931 487.212L192.535 455.548L192.472 369.007L192.521 333.25C192.455 327.997 191.232 323.143 191.952 317.842L192.536 305.051C192.534 299.941 191.669 294.807 192.749 289.76Z"/>
	<path fill="#125F92" transform="scale(0.5 0.5)" d="M204.563 615.722C204.824 617.015 204.737 617.412 203.958 618.5L202.418 620.296C201.937 620.395 201.021 620.657 200.5 620.59C198.804 620.373 198.688 619.762 197.819 618.429L204.563 615.722Z"/>
	<defs>
		<linearGradient id="gradient_3" gradientUnits="userSpaceOnUse" x1="215.39806" y1="612.55145" x2="217.16763" y2="409.60175">
			<stop offset="0" stop-color="#7D7B7B"/>
			<stop offset="1" stop-color="#BFBFBF"/>
		</linearGradient>
	</defs>
	<path fill="url(#gradient_3)" transform="scale(0.5 0.5)" d="M209.577 613.847C208.293 612.242 207.637 610.721 207.158 608.728C203.932 595.303 203.906 581.738 203.461 568.049L203.101 457.913L203.134 431.049C203.123 425.28 202.403 418.454 203.361 412.814C203.581 411.525 204.476 410.577 205.334 409.66C207.114 409.668 208.745 409.647 210.405 410.381C213.445 411.726 216.802 412.804 220.009 413.694L221.816 414.211C222.599 414.548 222.639 414.818 223.578 414.975C224.579 415.142 225.848 415.669 226.817 415.707L227.827 415.654C228.725 416.322 228.813 416.188 229.875 416.248C229.933 417.381 229.993 418.404 230.25 419.515C230.222 417.6 230.395 416.078 230.943 414.241L230.875 512.5C230.722 530.182 231.751 548.398 230.112 566.003C229.94 567.848 229.481 569.292 228.75 570.981L228.367 571.878L228.665 572.296C226.995 573.612 225.787 574.754 224.806 576.665C220.602 584.862 218.723 594.766 216.239 603.623C215.718 605.48 214.117 609.12 214.286 610.964L214.521 611.762L209.577 613.847Z"/>
	<defs>
		<linearGradient id="gradient_4" gradientUnits="userSpaceOnUse" x1="635.41864" y1="639.67139" x2="622.54706" y2="172.08179">
			<stop offset="0" stop-color="#006CB0"/>
			<stop offset="1" stop-color="#66D9F9"/>
		</linearGradient>
	</defs>
	<path fill="url(#gradient_4)" transform="scale(0.5 0.5)" d="M738.477 168.961C740.706 168.656 742.84 168.469 745.091 168.473L742.041 210.306L741.411 210.918C740.619 212.73 740.278 214.044 740.139 216L739.44 237.279C739.438 241.529 739.105 246.688 741.052 250.587L741.103 263.671L741.415 548.098C727.527 547.863 712.95 547.692 699.146 549.242C689.909 550.278 679.759 551.765 670.73 553.92L649.636 559.962C643.254 561.794 636.798 563.334 630.581 565.724C624.149 568.196 618.061 571.254 611.863 574.223C601.119 579.37 591.031 584.553 581 590.957L565.75 600.413C549.155 611.882 533.413 624.675 518.985 638.81L514.312 643.982C515.1 637.05 514.398 629.772 514.4 622.793L514.469 578.047L514.922 407.091C515.229 389.718 513.642 372.071 514.954 354.737L514.277 290.25L511.817 288.932C516.832 286.367 521.069 281.948 525.244 278.22L546.125 259.139C548.433 256.995 550.455 254.516 553 252.643C561.59 246.318 569.333 238.293 578.506 232.817C583.137 228.114 589.767 224.997 595.25 221.403L614.458 209.059C623.229 203.995 632.53 199.628 641.701 195.336C648.316 192.24 655.031 188.882 661.88 186.318C673.803 181.854 686.125 178.689 698.468 175.674C711.537 172.482 725.004 169.63 738.477 168.961Z"/>
	<path fill="#7CCDF4" transform="scale(0.5 0.5)" d="M738.477 168.961C740.706 168.656 742.84 168.469 745.091 168.473L742.041 210.306L741.411 210.918L739.554 210.752C738.181 209.34 738.772 203.693 738.755 201.5C739.386 200.55 739.255 200.99 739.363 199.815L739.413 198.968L739.255 195L738.913 194.17L738.755 193.25C737.522 189.16 739.662 186.717 740.841 183C741.528 180.834 741.82 178.576 742.555 176.413C743.303 174.212 744.296 172.409 743.843 170.027C742.322 168.988 740.305 169.129 738.477 168.961Z"/>
	<defs>
		<linearGradient id="gradient_5" gradientUnits="userSpaceOnUse" x1="384.75916" y1="640.80505" x2="400.7496" y2="172.93893">
			<stop offset="0" stop-color="#025698"/>
			<stop offset="1" stop-color="#00B5E8"/>
		</linearGradient>
	</defs>
	<path fill="url(#gradient_5)" transform="scale(0.5 0.5)" d="M279.649 240.192L278.006 168.862C294.911 169.225 311.263 172.13 327.73 175.722L339.5 177.968C354.039 181.405 368.915 186.51 382.594 192.468C386.934 194.359 391.611 196.118 395.578 198.72C400.292 200.237 404.916 203.004 409.25 205.383C413.708 207.83 418.563 210.258 422.552 213.406C432.063 219.649 442.77 225.46 451.068 233.29C454.156 235.002 456.977 237.697 459.74 239.905C474.745 251.899 488.38 265.269 501.545 279.211C504.704 282.557 508.086 285.434 510.734 289.245L511.817 288.932L514.277 290.25L514.954 354.737C513.642 372.071 515.229 389.718 514.922 407.091L514.469 578.047L514.4 622.793C514.398 629.772 515.1 637.05 514.312 643.982L511.081 650.107L507.974 645.719L479.497 617.902C467.368 606.93 452.957 597.657 438.901 589.435C434.374 586.787 430.033 583.773 425.391 581.325C420.837 578.923 415.878 577.034 411.193 574.872C370.226 555.968 325.608 545.778 280.353 548.303C279.872 544.415 280.331 539.96 280.24 536.003L279.479 502.856L279.822 483.398L279.649 240.192Z"/>
	<path fill="#2C4268" transform="scale(0.5 0.5)" d="M279.479 502.856L279.822 483.398C282.216 487.409 282.872 495.476 281.599 500.021C281.257 501.242 280.409 502.05 279.479 502.856Z"/>
	<path fill="#EBEBEB" transform="scale(0.5 0.5)" d="M511.817 288.932L514.277 290.25L514.954 354.737C513.642 372.071 515.229 389.718 514.922 407.091L514.469 578.047L514.4 622.793C514.398 629.772 515.1 637.05 514.312 643.982L511.081 650.107L507.974 645.719C507.239 641.848 507.555 637.7 507.597 633.767L507.82 613.775L508.06 550.329L508.018 381.083L508.157 322.84L507.966 294.213C508.025 291.592 508.944 290.927 510.734 289.245L511.817 288.932Z"/>
	<defs>
		<linearGradient id="gradient_6" gradientUnits="userSpaceOnUse" x1="511.99191" y1="287.35062" x2="511.07495" y2="739.20227">
			<stop offset="0" stop-color="#8CCEF5"/>
			<stop offset="1" stop-color="#EEF8FD"/>
		</linearGradient>
	</defs>
	<path fill="url(#gradient_6)" transform="scale(0.5 0.5)" d="M788.554 344.264L788.542 275.952C803.472 278.323 818.434 281.546 832.131 288.12C835.558 289.978 839.635 291.839 842.375 294.679C849.986 302.568 847.206 315.492 857.266 322.544C860.482 324.798 864.681 326.721 868.5 327.645C870.232 328.063 872.202 328.154 873.809 328.917L874.1 704.138C872.616 704.304 870.881 703.545 869.425 703.143C865.507 702.064 861.635 700.949 857.817 699.552L857.893 707.259L857.953 739.519C853.783 738.142 849.885 736.281 845.777 734.792L812.117 723.771C787.599 716.698 762.394 711.67 737.25 707.446C684.434 698.574 628.049 694.836 575.556 707.75C558.595 711.923 542.39 717.257 526.043 723.358C521.84 724.927 517.794 726.949 513.55 728.394C512.858 728.63 510.967 729.418 510.208 729.308C505.875 728.683 500.538 725.252 496.418 723.584L479.037 717.194C465.448 712.47 450.715 709.084 436.619 706.235C374.88 693.758 309.469 699.791 248.454 713.32C234.899 716.325 221.203 719.255 207.921 723.329C198.397 726.25 188.963 729.337 179.728 733.093C174.808 735.093 170.1 737.687 165.106 739.479L165.125 707.764L165.176 699.403L149.908 704.196C149.219 699.224 149.502 693.885 149.484 688.863L149.429 663.072L149.528 570.708L149.883 408.779L149.8 351.431C149.888 343.706 149.704 335.937 150.268 328.229C161.013 327.62 170.678 323.652 175.913 313.711C178.039 309.676 179.288 305.214 181.401 301.196C183.828 296.583 188.268 292.331 192.749 289.76C191.669 294.807 192.534 299.941 192.536 305.051L191.952 317.842C191.232 323.143 192.455 327.997 192.521 333.25L192.472 369.007L192.535 455.548L192.931 487.212C193.021 493.377 192.589 499.452 193.311 505.607C194.159 512.842 192.53 520.143 192.711 527.382L194.313 585.269C194.564 590.532 194.13 595.881 194.651 601.12C195.22 606.844 196.578 612.599 197.418 618.308L197.819 618.429C198.688 619.762 198.804 620.373 200.5 620.59C201.021 620.657 201.937 620.395 202.418 620.296L203.958 618.5C204.737 617.412 204.824 617.015 204.563 615.722L209.577 613.847L214.521 611.762L214.286 610.964C214.117 609.12 215.718 605.48 216.239 603.623C218.723 594.766 220.602 584.862 224.806 576.665C225.787 574.754 226.995 573.612 228.665 572.296C239.291 567.839 250.704 565.316 262.084 563.65C294.242 558.941 327.389 561.63 358.77 569.65L359.279 569.729C367.679 571.109 376.785 574.763 384.781 577.69C413.792 588.307 441.421 603.169 465.63 622.36C468.804 624.876 472.215 627.066 475.317 629.684C481.164 634.62 486.716 640.214 492.25 645.5C497.569 650.581 501.429 656.886 506.196 662.451C507.575 664.061 509.206 666.28 511.078 667.264C515.452 662.778 519.113 657.875 523.216 653.174C529.198 646.318 535.782 639.651 542.402 633.414C553.254 623.19 565.087 614.622 577.65 606.671L593.372 596.693C600.579 592.57 608.092 589.125 615.634 585.678C626.047 580.918 637.243 576.132 648.466 573.718C657.232 570.429 666.347 568.352 675.5 566.516C697.655 562.07 719.252 560.963 741.773 562.382C758.766 563.453 775.208 565.912 791.381 571.438L791.103 570.473C789.348 565.915 789.421 561.198 789.16 556.349L788.584 531.414L788.553 494.036L788.579 398.199C787.928 392.874 788.499 386.775 788.499 381.377L788.554 344.264Z"/>
	<path fill="#007BBA" transform="scale(0.5 0.5)" d="M545.568 675.168C545.637 674.999 546.8 674.253 547.036 674.086C550.188 671.863 553.435 670.009 556.881 668.285L558.021 669.618L561.043 669.869C556.472 672.373 551.741 675.695 546.983 677.688C546.035 677.715 544.791 677.615 544 678.255L543.5 678.75L542.75 678.755L542.125 679.503L541.5 679.878L541 680.25L540.35 679.855C542.19 678.275 544.19 677.87 545.384 675.555L545.568 675.168Z"/>
	<defs>
		<linearGradient id="gradient_7" gradientUnits="userSpaceOnUse" x1="530.59845" y1="684.27631" x2="539.90155" y2="681.22369">
			<stop offset="0" stop-color="#0B3455"/>
			<stop offset="1" stop-color="#29527A"/>
		</linearGradient>
	</defs>
	<path fill="url(#gradient_7)" transform="scale(0.5 0.5)" d="M545.568 675.168L545.384 675.555C544.19 677.87 542.19 678.275 540.35 679.855L541 680.25L541.5 679.878L542.125 679.503L542.75 678.755L543.5 678.75L544 678.255C544.791 677.615 546.035 677.715 546.983 677.688C539.423 682.572 531.117 686.635 524.106 692.301L523.286 689.94L545.568 675.168Z"/>
	<path fill="#BCE3FA" transform="scale(0.5 0.5)" d="M178.465 676.976C182.354 671.944 191.263 668.782 196.973 666.605L196.689 667.051C194.848 669.825 191.54 671.721 189.252 674.36C189.799 676.989 189.861 677.366 191.75 679.255L192.625 679.003C193.685 678.721 194.436 678.791 195.521 678.826C190.569 681.047 185.55 683.012 180.936 685.908L178.832 684.691C178.352 681.957 178.053 679.755 178.465 676.976Z"/>
	<path fill="#125F92" transform="scale(0.5 0.5)" d="M562.621 665.112C576.116 656.62 591.645 651.308 606.127 644.813C606.597 646.515 606.898 648.03 607.011 649.794L561.043 669.869L558.021 669.618L556.881 668.285L562.621 665.112Z"/>
	<path fill="#007BBA" transform="scale(0.5 0.5)" d="M195.521 678.826L218.917 671.637C228.79 669.071 239.071 667.264 249.116 665.472L283.75 660.082C295.239 658.876 306.715 658.555 318.252 658.28C324.388 658.133 333.713 656.841 339.405 659.028L316.838 660.658L269.75 666.868C255.196 669.085 240.306 671.467 226.084 675.331C211.771 679.219 197.53 683.542 183.724 688.978C179.043 690.821 174.891 694.3 170.02 695.563L169.579 694.689C170.717 690.734 177.54 688.013 180.936 685.908C185.55 683.012 190.569 681.047 195.521 678.826Z"/>
	<path fill="#007BBA" transform="scale(0.5 0.5)" d="M850.542 695.955C842.858 691.24 833.954 688.09 825.5 685.002C811.411 679.857 797.215 675.593 782.5 672.547L747 666.465L718.816 662.153C713.199 661.47 688.827 660.783 685.25 658.298L730.969 660.226C741.817 660.941 752.694 661.707 763.446 663.382C777.875 665.631 792.085 669.244 806.349 672.329L838.254 684.795C841.875 686.897 844.813 689.291 848.064 691.889C849.296 692.873 851.195 693.996 851.795 695.465L850.542 695.955Z"/>
	<path fill="#007BBA" transform="scale(0.5 0.5)" d="M624.915 658.751C635.727 655.431 646.94 653.365 658.034 651.429C660.426 651.011 662.698 650.056 665.089 649.705L710.25 645.355C735.606 643.733 763.689 643.829 788.47 650.147L789.315 650.493C793.642 652.202 798.719 652.641 803.25 653.763C815.458 656.786 826.577 661.811 836.982 668.842C839.121 670.288 843.094 672.509 844.028 675C844.489 676.229 844.405 677.009 843.818 678.201L843.271 679.048C835.265 670.807 823.494 664.874 812.328 662.271C798.555 657.139 783.578 654.63 769.073 652.853C759.77 651.714 750.636 650.344 741.258 649.854C714.305 648.446 687.043 652.015 660.566 656.665C649.908 658.537 638.692 660.153 628.343 663.338L560.032 685.335C564.607 681.963 570.457 679.796 575.623 677.477L598.415 667.498L624.915 658.751Z"/>
	<path fill="#007BBA" transform="scale(0.5 0.5)" d="M230.305 650.948C247.259 647.243 264.211 645.742 281.521 645.047C327.074 643.218 372.872 649.267 415.97 664.461L427.101 668.997C438.67 673.529 451.042 678.313 461.52 685.022C462.319 685.533 463.47 686.074 463.987 686.849C459.234 684.973 454.614 682.46 449.875 680.714C397.861 661.553 342.018 648.502 286.287 649.847C277.8 650.052 269.603 651.067 261.184 651.913C239.725 654.069 217.35 657.723 197.429 666.404L196.973 666.605C191.263 668.782 182.354 671.944 178.465 676.976L177.533 677.593L177.084 677.5L177.175 675.5L176.25 674.862L176.364 674.411C188.114 663.739 202.507 658.308 217.603 654.189C221.636 653.088 226.053 652.74 229.897 651.128L230.305 650.948Z"/>
	<path fill="#007BBA" transform="scale(0.5 0.5)" d="M606.127 644.813C649.547 628.988 695.618 621.816 741.714 622.8L763.828 623.549L775.866 625.14C785.653 626.301 794.983 628.014 804.586 630.281C810.374 631.647 816.038 632.97 821.543 635.267C824.43 637.043 831.214 638.778 833.111 641.082L835.275 642.151L835.76 642.619C837.084 643.874 841.124 646.008 841.805 647.31C842.616 648.861 842.619 651.806 843.402 653.677L833.461 647.337C823.61 642.215 812.413 637.334 801.37 635.739C748.249 624.986 691.118 627.396 638.677 640.544C628.01 643.219 617.32 645.921 607.011 649.794C606.898 648.03 606.597 646.515 606.127 644.813Z"/>
	<path fill="#007BBA" transform="scale(0.5 0.5)" d="M201.187 635.842C209.497 631.88 220.029 630.04 229.043 628.157C249.901 623.8 270.64 622.371 291.905 622.43C333.34 622.545 374.019 629.139 413.112 643.052C431.805 649.706 449.815 659.041 467.116 668.7C478.502 675.377 489.417 682.273 499.75 690.509C503.428 693.441 507.268 696.358 510.491 699.8C515.133 696.885 518.964 693.255 523.286 689.94L524.106 692.301C523.394 693.234 521.659 694.274 520.699 695.006C517.331 697.574 513.881 700.428 510.03 702.212C506.335 698.274 502.138 695.229 497.83 692.016C488.285 684.899 477.971 678.869 467.699 672.856C463.342 670.306 458.655 668.29 454.147 666.018C428.21 652.944 401.258 644.259 373 637.844C358.254 634.496 343.173 631.666 328.105 630.242C309.704 628.504 290.807 628.612 272.364 629.526C253.377 630.467 234.845 632.354 216.398 637.209C212.946 637.764 209.591 638.929 206.236 639.897C201.074 642.479 195.182 643.79 189.904 646.33C185.051 648.666 180.834 652.409 176.307 655.336C177.785 652.373 179.239 649.259 181.478 646.782C185.275 642.582 191.965 639.739 197.021 637.344L201.187 635.842Z"/>
	<defs>
		<linearGradient id="gradient_8" gradientUnits="userSpaceOnUse" x1="510.48944" y1="699.00195" x2="510.14157" y2="607.10986">
			<stop offset="0" stop-color="#B4BABE"/>
			<stop offset="1" stop-color="white"/>
		</linearGradient>
	</defs>
	<path fill="url(#gradient_8)" transform="scale(0.5 0.5)" d="M678.689 606.608C720.042 601.257 762.451 600.744 803.113 610.875L817.34 614.96L828.64 619.407C831.005 620.733 835.53 622.945 836.574 625.5C836.176 626.749 835.464 627.183 834.483 627.982L835.937 630.548C837.875 633.887 836.753 636.98 835.79 640.441L835.275 642.151L833.111 641.082C831.214 638.778 824.43 637.043 821.543 635.267C816.038 632.97 810.374 631.647 804.586 630.281C794.983 628.014 785.653 626.301 775.866 625.14L763.828 623.549L741.714 622.8C695.618 621.816 649.547 628.988 606.127 644.813C591.645 651.308 576.116 656.62 562.621 665.112L556.881 668.285C553.435 670.009 550.188 671.863 547.036 674.086C546.8 674.253 545.637 674.999 545.568 675.168L523.286 689.94C518.964 693.255 515.133 696.885 510.491 699.8C507.268 696.358 503.428 693.441 499.75 690.509C489.417 682.273 478.502 675.377 467.116 668.7C449.815 659.041 431.805 649.706 413.112 643.052C374.019 629.139 333.34 622.545 291.905 622.43C270.64 622.371 249.901 623.8 229.043 628.157C220.029 630.04 209.497 631.88 201.187 635.842L197.021 637.344C195.186 637.242 193.487 637.184 191.763 637.928C189.513 638.898 187.272 641.696 185 641.539L184.648 641.079C183.564 639.132 184.157 634.475 184.642 632.25C184.863 631.236 185.128 630.983 184.907 629.921L184.729 629.278L184.019 628C184.093 627.33 184.063 627.194 184.388 626.5C186.256 622.512 193.591 619.882 197.418 618.308L197.819 618.429C198.688 619.762 198.804 620.373 200.5 620.59C201.021 620.657 201.937 620.395 202.418 620.296L203.958 618.5C204.737 617.412 204.824 617.015 204.563 615.722L209.577 613.847L214.521 611.762C250.161 602.105 286.787 602.212 323.391 604.145L356.39 608.208C370.039 610.455 383.61 614.046 396.857 617.962C402.93 619.758 409.166 621.335 415.095 623.561C421.195 625.851 426.963 628.742 432.913 631.346C445.052 636.658 456.295 642.012 467.532 649.049C474.224 653.239 481.592 657.261 487.438 662.604C492.997 666.15 498.172 670.888 502.807 675.57C504.53 677.31 506.304 679.048 507.881 680.921C508.814 682.03 509.932 684.138 511.348 684.498L528.36 668.576L537.404 661.57L552.755 651.645C554.04 650.931 555.565 650 557 649.642C558.294 649.318 558.817 648.823 559.856 648.01C560.593 646.936 564.738 645.095 566 644.412C574.284 639.93 582.202 635.724 590.94 632.147L613.694 623.137L624.956 619.006C633.064 616.265 641.744 613.896 650.095 611.986C653.241 611.267 656.463 611.191 659.621 610.616C662.757 610.046 665.75 608.872 668.906 608.335C672.138 607.786 675.553 607.557 678.689 606.608Z"/>
	<path fill="#007BBA" transform="scale(0.5 0.5)" d="M197.418 618.308L197.819 618.429C198.688 619.762 198.804 620.373 200.5 620.59C201.021 620.657 201.937 620.395 202.418 620.296L203.151 620.551C196.769 622.921 190.284 625.258 184.729 629.278L184.019 628C184.093 627.33 184.063 627.194 184.388 626.5C186.256 622.512 193.591 619.882 197.418 618.308Z"/>
	<path fill="#2C4268" transform="scale(0.5 0.5)" d="M590.94 632.147L613.694 623.137L614.119 626L613.604 627.373C612.289 627.913 611.012 628.459 609.639 628.833C607.366 629.452 605.179 630.682 603 631.586L591.997 635.917L561.157 651.21L552.638 656.453L551.885 657.344C546.806 659.649 541.861 663.24 537.214 666.334L528.876 672.287C523.123 676.872 514.976 682.315 511.25 688.663C510.806 688.168 510.575 687.99 510.428 687.325L510.532 686.963C510.914 686.097 511.126 685.426 511.348 684.498L528.36 668.576L537.404 661.57L552.755 651.645C554.04 650.931 555.565 650 557 649.642C558.294 649.318 558.817 648.823 559.856 648.01C560.593 646.936 564.738 645.095 566 644.412C574.284 639.93 582.202 635.724 590.94 632.147Z"/>
	<path fill="#007BBA" transform="scale(0.5 0.5)" d="M678.689 606.608C720.042 601.257 762.451 600.744 803.113 610.875L817.34 614.96L828.64 619.407C831.005 620.733 835.53 622.945 836.574 625.5C836.176 626.749 835.464 627.183 834.483 627.982C831.845 626.35 829.319 624.847 826.439 623.666C816.628 619.014 805.695 616.227 795.109 613.975C747.898 603.933 696.468 607.143 649.5 617.074C637.359 619.641 625.482 623.825 613.604 627.373L614.119 626L613.694 623.137L624.956 619.006C633.064 616.265 641.744 613.896 650.095 611.986C653.241 611.267 656.463 611.191 659.621 610.616C662.757 610.046 665.75 608.872 668.906 608.335C672.138 607.786 675.553 607.557 678.689 606.608Z"/>
	<defs>
		<linearGradient id="gradient_9" gradientUnits="userSpaceOnUse" x1="361.505" y1="701.02521" x2="351.15018" y2="594.8089">
			<stop offset="0" stop-color="#1D3461"/>
			<stop offset="1" stop-color="#0768AA"/>
		</linearGradient>
	</defs>
	<path fill="url(#gradient_9)" transform="scale(0.5 0.5)" d="M214.521 611.762C250.161 602.105 286.787 602.212 323.391 604.145L356.39 608.208C370.039 610.455 383.61 614.046 396.857 617.962C402.93 619.758 409.166 621.335 415.095 623.561C421.195 625.851 426.963 628.742 432.913 631.346C445.052 636.658 456.295 642.012 467.532 649.049C474.224 653.239 481.592 657.261 487.438 662.604C492.997 666.15 498.172 670.888 502.807 675.57C504.53 677.31 506.304 679.048 507.881 680.921C508.814 682.03 509.932 684.138 511.348 684.498C511.126 685.426 510.914 686.097 510.532 686.963L510.428 687.325C503.134 678.794 494.841 671.61 485.477 665.392L482.553 663.157C481.288 663.025 479.102 661.231 478.028 660.497L465.028 651.826C460.038 648.728 454.932 645.874 449.651 643.295C435.15 636.214 420.162 630.532 404.846 625.478C395.965 622.548 387.238 619.631 378.118 617.477C370.682 615.72 363.047 614.79 355.512 613.567C351.168 612.862 346.866 611.715 342.5 611.176C308.412 606.969 273.13 606.345 239.187 612.006C226.914 614.052 214.934 616.482 203.151 620.551L202.418 620.296L203.958 618.5C204.737 617.412 204.824 617.015 204.563 615.722L209.577 613.847L214.521 611.762Z"/>
	<defs>
		<linearGradient id="gradient_10" gradientUnits="userSpaceOnUse" x1="747.2439" y1="583.09399" x2="872.20233" y2="305.9812">
			<stop offset="0" stop-color="#9F9E9D"/>
			<stop offset="1" stop-color="#FAFEFE"/>
		</linearGradient>
	</defs>
	<path fill="url(#gradient_10)" transform="scale(0.5 0.5)" d="M788.554 344.264L788.542 275.952C803.472 278.323 818.434 281.546 832.131 288.12C832.789 293.605 831.446 298.808 831.112 304.25L830.493 324.686C831.817 338.805 830.553 353.614 830.099 367.799C829.95 372.458 830.492 377.099 830.434 381.761L829.86 413.945L830.508 447.377L830.132 520.75L830.369 573.306C830.356 588.529 830.62 604.297 828.64 619.407L817.34 614.96L803.113 610.875L803.529 609.74C801.893 600.765 800.246 591.882 797.292 583.235C796.106 579.765 795.015 576.154 792.739 573.224L791.381 571.438L791.103 570.473C789.348 565.915 789.421 561.198 789.16 556.349L788.584 531.414L788.553 494.036L788.579 398.199C787.928 392.874 788.499 386.775 788.499 381.377L788.554 344.264Z"/>
	<defs>
		<linearGradient id="gradient_11" gradientUnits="userSpaceOnUse" x1="779.6463" y1="604.24634" x2="827.93799" y2="414.52966">
			<stop offset="0" stop-color="#838282"/>
			<stop offset="1" stop-color="#C8C8C8"/>
		</linearGradient>
	</defs>
	<path fill="url(#gradient_11)" transform="scale(0.5 0.5)" d="M788.579 398.199C790.235 403.702 789.146 411.363 789.224 417.201C789.643 415.498 789.572 413.709 789.599 411.963L790.503 412.132C792.454 412.387 793.99 411.718 795.775 411.055C796.89 410.641 798.615 410.68 799.827 410.559C800.707 410.472 801.186 410.542 802.023 410.645C802.638 410.721 803.08 410.706 803.691 410.63C805.771 410.368 808.446 410.89 810.502 411.255C812.345 411.582 814.219 411.265 816.126 411.643L819 412.008L819 403.75L819.28 404L817.34 614.96L803.113 610.875L803.529 609.74C801.893 600.765 800.246 591.882 797.292 583.235C796.106 579.765 795.015 576.154 792.739 573.224L791.381 571.438L791.103 570.473C789.348 565.915 789.421 561.198 789.16 556.349L788.584 531.414L788.553 494.036L788.579 398.199Z"/>
	<defs>
		<linearGradient id="gradient_12" gradientUnits="userSpaceOnUse" x1="507.7645" y1="683.97272" x2="509.00812" y2="559.32019">
			<stop offset="0" stop-color="#7B7A79"/>
			<stop offset="1" stop-color="#E7E8E8"/>
		</linearGradient>
	</defs>
	<path fill="url(#gradient_12)" transform="scale(0.5 0.5)" d="M228.665 572.296C239.291 567.839 250.704 565.316 262.084 563.65C294.242 558.941 327.389 561.63 358.77 569.65L359.279 569.729C367.679 571.109 376.785 574.763 384.781 577.69C413.792 588.307 441.421 603.169 465.63 622.36C468.804 624.876 472.215 627.066 475.317 629.684C481.164 634.62 486.716 640.214 492.25 645.5C497.569 650.581 501.429 656.886 506.196 662.451C507.575 664.061 509.206 666.28 511.078 667.264C515.452 662.778 519.113 657.875 523.216 653.174C529.198 646.318 535.782 639.651 542.402 633.414C553.254 623.19 565.087 614.622 577.65 606.671L593.372 596.693C600.579 592.57 608.092 589.125 615.634 585.678C626.047 580.918 637.243 576.132 648.466 573.718C657.232 570.429 666.347 568.352 675.5 566.516C697.655 562.07 719.252 560.963 741.773 562.382C758.766 563.453 775.208 565.912 791.381 571.438L792.739 573.224C795.015 576.154 796.106 579.765 797.292 583.235C800.246 591.882 801.893 600.765 803.529 609.74L803.113 610.875C762.451 600.744 720.042 601.257 678.689 606.608C675.553 607.557 672.138 607.786 668.906 608.335C665.75 608.872 662.757 610.046 659.621 610.616C656.463 611.191 653.241 611.267 650.095 611.986C641.744 613.896 633.064 616.265 624.956 619.006L613.694 623.137L590.94 632.147C582.202 635.724 574.284 639.93 566 644.412C564.738 645.095 560.593 646.936 559.856 648.01C558.817 648.823 558.294 649.318 557 649.642C555.565 650 554.04 650.931 552.755 651.645L537.404 661.57L528.36 668.576L511.348 684.498C509.932 684.138 508.814 682.03 507.881 680.921C506.304 679.048 504.53 677.31 502.807 675.57C498.172 670.888 492.997 666.15 487.438 662.604C481.592 657.261 474.224 653.239 467.532 649.049C456.295 642.012 445.052 636.658 432.913 631.346C426.963 628.742 421.195 625.851 415.095 623.561C409.166 621.335 402.93 619.758 396.857 617.962C383.61 614.046 370.039 610.455 356.39 608.208L323.391 604.145C286.787 602.212 250.161 602.105 214.521 611.762L214.286 610.964C214.117 609.12 215.718 605.48 216.239 603.623C218.723 594.766 220.602 584.862 224.806 576.665C225.787 574.754 226.995 573.612 228.665 572.296Z"/>
</svg>
